<?xml version="1.0" encoding="UTF-8" standalone="no"?>
<svg
   xmlns:dc="http://purl.org/dc/elements/1.1/"
   xmlns:cc="http://creativecommons.org/ns#"
   xmlns:rdf="http://www.w3.org/1999/02/22-rdf-syntax-ns#"
   xmlns:svg="http://www.w3.org/2000/svg"
   xmlns="http://www.w3.org/2000/svg"
   xmlns:sodipodi="http://sodipodi.sourceforge.net/DTD/sodipodi-0.dtd"
   xmlns:inkscape="http://www.inkscape.org/namespaces/inkscape"
   width="203.41183mm"
   height="567.86273mm"
   viewBox="0 0 203.41184 567.86273"
   version="1.1"
   id="svg8"
   inkscape:version="1.0 (4035a4fb49, 2020-05-01)"
   sodipodi:docname="logo.svg">
  <defs
     id="defs2" />
  <sodipodi:namedview
     showguides="false"
     fit-margin-bottom="0"
     fit-margin-right="0"
     fit-margin-left="0"
     fit-margin-top="0"
     id="base"
     pagecolor="#ffffff"
     bordercolor="#666666"
     borderopacity="1.0"
     inkscape:pageopacity="0.0"
     inkscape:pageshadow="2"
     inkscape:zoom="0.49497475"
     inkscape:cx="-123.33095"
     inkscape:cy="1430.7112"
     inkscape:document-units="mm"
     inkscape:current-layer="layer1"
     inkscape:document-rotation="0"
     showgrid="false"
     inkscape:window-width="1920"
     inkscape:window-height="1147"
     inkscape:window-x="1912"
     inkscape:window-y="-8"
     inkscape:window-maximized="1" />
  <metadata
     id="metadata5">
    <rdf:RDF>
      <cc:Work
         rdf:about="">
        <dc:format>image/svg+xml</dc:format>
        <dc:type
           rdf:resource="http://purl.org/dc/dcmitype/StillImage" />
        <dc:title></dc:title>
      </cc:Work>
    </rdf:RDF>
  </metadata>
  <g
     transform="translate(5.0612885,-38.932653)"
     inkscape:label="Vrstva 1"
     inkscape:groupmode="layer"
     id="layer1">
    <text
       xml:space="preserve"
       style="font-style:normal;font-variant:normal;font-weight:normal;font-stretch:normal;font-size:18.141px;line-height:1.25;font-family:'Eternal Logo';-inkscape-font-specification:'Eternal Logo, Normal';font-variant-ligatures:normal;font-variant-caps:normal;font-variant-numeric:normal;font-variant-east-asian:normal;fill:#000000;fill-opacity:1;stroke:none;stroke-width:0.453526"
       x="95.754837"
       y="127.71312"
       id="text835"><tspan
         sodipodi:role="line"
         x="95.754837"
         y="127.71312"
         style="font-style:normal;font-variant:normal;font-weight:normal;font-stretch:normal;font-size:18.141px;font-family:'Eternal Logo';-inkscape-font-specification:'Eternal Logo, Normal';font-variant-ligatures:normal;font-variant-caps:normal;font-variant-numeric:normal;font-variant-east-asian:normal;stroke-width:0.453526"
         id="tspan906">P2RANK</tspan></text>
    <path
       id="path869"
       style="fill:#00305a;fill-opacity:0.64;stroke:none;stroke-width:18.8976;stroke-opacity:1"
       d="m 256.92773,381.83789 a 77.27667,77.27667 0 0 0 -77.12109,77.27734 77.27667,77.27667 0 0 0 77.27734,77.27539 77.27667,77.27667 0 0 0 64.02344,-34.00195 47.47717,47.47717 0 0 1 -12.50586,1.67774 47.47717,47.47717 0 0 1 -47.47656,-47.47657 47.47717,47.47717 0 0 1 47.47656,-47.47851 47.47717,47.47717 0 0 1 7.96485,0.67383 77.27667,77.27667 0 0 0 -59.48243,-27.94727 77.27667,77.27667 0 0 0 -0.15625,0 z"
       transform="scale(0.26458333)" />
    <circle
       style="fill:#2a2a2b;fill-opacity:0.55;stroke:none;stroke-width:6.05262;stroke-opacity:1"
       id="path904"
       cx="81.383568"
       cy="121.20673"
       r="9.2207985" />
    <text
       id="text835-4"
       y="177.19267"
       x="96.546585"
       style="font-style:normal;font-variant:normal;font-weight:normal;font-stretch:normal;font-size:18.141px;line-height:1.25;font-family:'Eternal Logo';-inkscape-font-specification:'Eternal Logo, Normal';font-variant-ligatures:normal;font-variant-caps:normal;font-variant-numeric:normal;font-variant-east-asian:normal;fill:#000000;fill-opacity:1;stroke:none;stroke-width:0.453525"
       xml:space="preserve"><tspan
         id="tspan906-1"
         style="font-style:normal;font-variant:normal;font-weight:normal;font-stretch:normal;font-size:18.141px;font-family:'Eternal Logo';-inkscape-font-specification:'Eternal Logo, Normal';font-variant-ligatures:normal;font-variant-caps:normal;font-variant-numeric:normal;font-variant-east-asian:normal;stroke-width:0.453525"
         y="177.19267"
         x="96.546585"
         sodipodi:role="line">P2RANK</tspan></text>
    <path
       d="m 68.770538,150.50749 a 20.446119,20.446119 0 0 0 -20.40495,20.4463 20.446119,20.446119 0 0 0 20.44629,20.44578 20.446119,20.446119 0 0 0 16.93954,-8.99635 12.561668,12.561668 0 0 1 -3.30884,0.4439 12.561668,12.561668 0 0 1 -12.56151,-12.56151 12.561668,12.561668 0 0 1 12.56151,-12.56202 12.561668,12.561668 0 0 1 2.10736,0.17828 20.446119,20.446119 0 0 0 -15.73806,-7.39438 20.446119,20.446119 0 0 0 -0.0413,0 z"
       style="fill:#1435ad;fill-opacity:1;stroke:none;stroke-width:4.99999;stroke-opacity:1"
       id="path869-3" />
    <circle
       r="9.2207985"
       cy="170.68628"
       cx="82.175308"
       id="path904-7"
       style="fill:#ffb100;fill-opacity:1;stroke:none;stroke-width:6.05261;stroke-opacity:1" />
    <text
       xml:space="preserve"
       style="font-style:normal;font-variant:normal;font-weight:normal;font-stretch:normal;font-size:18.141px;line-height:1.25;font-family:'Eternal Logo';-inkscape-font-specification:'Eternal Logo, Normal';font-variant-ligatures:normal;font-variant-caps:normal;font-variant-numeric:normal;font-variant-east-asian:normal;fill:#000000;fill-opacity:1;stroke:none;stroke-width:0.453525"
       x="95.412643"
       y="228.78642"
       id="text835-4-2"><tspan
         sodipodi:role="line"
         x="95.412643"
         y="228.78642"
         style="font-style:normal;font-variant:normal;font-weight:normal;font-stretch:normal;font-size:18.141px;font-family:'Eternal Logo';-inkscape-font-specification:'Eternal Logo, Normal';font-variant-ligatures:normal;font-variant-caps:normal;font-variant-numeric:normal;font-variant-east-asian:normal;stroke-width:0.453525"
         id="tspan906-1-1">P2RANK</tspan></text>
    <path
       id="path869-3-6"
       style="fill:#2c3e82;fill-opacity:1;stroke:none;stroke-width:4.99999;stroke-opacity:1"
       d="m 67.636611,202.10124 a 20.446119,20.446119 0 0 0 -20.40495,20.4463 20.446119,20.446119 0 0 0 20.44629,20.44578 20.446119,20.446119 0 0 0 16.93954,-8.99635 12.561668,12.561668 0 0 1 -3.30884,0.4439 12.561668,12.561668 0 0 1 -12.56151,-12.56151 12.561668,12.561668 0 0 1 12.56151,-12.56202 12.561668,12.561668 0 0 1 2.10736,0.17828 20.446119,20.446119 0 0 0 -15.73806,-7.39438 20.446119,20.446119 0 0 0 -0.0413,0 z" />
    <circle
       style="fill:#bf9430;fill-opacity:1;stroke:none;stroke-width:6.05261;stroke-opacity:1"
       id="path904-7-4"
       cx="81.041367"
       cy="222.28003"
       r="9.2207985" />
    <text
       id="text835-4-2-4"
       y="280.38016"
       x="94.467712"
       style="font-style:normal;font-variant:normal;font-weight:normal;font-stretch:normal;font-size:18.141px;line-height:1.25;font-family:'Eternal Logo';-inkscape-font-specification:'Eternal Logo, Normal';font-variant-ligatures:normal;font-variant-caps:normal;font-variant-numeric:normal;font-variant-east-asian:normal;fill:#000000;fill-opacity:1;stroke:none;stroke-width:0.453525"
       xml:space="preserve"><tspan
         id="tspan906-1-1-7"
         style="font-style:normal;font-variant:normal;font-weight:normal;font-stretch:normal;font-size:18.141px;font-family:'Eternal Logo';-inkscape-font-specification:'Eternal Logo, Normal';font-variant-ligatures:normal;font-variant-caps:normal;font-variant-numeric:normal;font-variant-east-asian:normal;stroke-width:0.453525"
         y="280.38016"
         x="94.467712"
         sodipodi:role="line">P2RANK</tspan></text>
    <path
       d="m 66.691675,253.69499 a 20.446119,20.446119 0 0 0 -20.40495,20.4463 20.446119,20.446119 0 0 0 20.44629,20.44578 20.446119,20.446119 0 0 0 16.939543,-8.99635 12.561668,12.561668 0 0 1 -3.30884,0.4439 12.561668,12.561668 0 0 1 -12.561513,-12.56151 12.561668,12.561668 0 0 1 12.561513,-12.56202 12.561668,12.561668 0 0 1 2.10736,0.17828 20.446119,20.446119 0 0 0 -15.738063,-7.39438 20.446119,20.446119 0 0 0 -0.0413,0 z"
       style="fill:#67e300;fill-opacity:1;stroke:none;stroke-width:4.99999;stroke-opacity:1"
       id="path869-3-6-9" />
    <circle
       r="9.2207985"
       cy="273.87378"
       cx="80.096428"
       id="path904-7-4-5"
       style="fill:#e40045;fill-opacity:1;stroke:none;stroke-width:6.05261;stroke-opacity:1" />
    <text
       xml:space="preserve"
       style="font-style:normal;font-variant:normal;font-weight:normal;font-stretch:normal;font-size:18.141px;line-height:1.25;font-family:'Eternal Logo';-inkscape-font-specification:'Eternal Logo, Normal';font-variant-ligatures:normal;font-variant-caps:normal;font-variant-numeric:normal;font-variant-east-asian:normal;fill:#000000;fill-opacity:1;stroke:none;stroke-width:0.453525"
       x="93.522766"
       y="328.38315"
       id="text835-4-2-4-0"><tspan
         sodipodi:role="line"
         x="93.522766"
         y="328.38315"
         style="font-style:normal;font-variant:normal;font-weight:normal;font-stretch:normal;font-size:18.141px;font-family:'Eternal Logo';-inkscape-font-specification:'Eternal Logo, Normal';font-variant-ligatures:normal;font-variant-caps:normal;font-variant-numeric:normal;font-variant-east-asian:normal;stroke-width:0.453525"
         id="tspan906-1-1-7-9">P2RANK</tspan></text>
    <path
       id="path869-3-6-9-0"
       style="fill:#67e300;fill-opacity:0.637602;stroke:none;stroke-width:4.99999;stroke-opacity:1"
       d="m 65.746725,301.69796 a 20.446119,20.446119 0 0 0 -20.40495,20.4463 20.446119,20.446119 0 0 0 20.44629,20.44578 20.446119,20.446119 0 0 0 16.93955,-8.99635 12.561668,12.561668 0 0 1 -3.30884,0.4439 12.561668,12.561668 0 0 1 -12.56152,-12.56151 12.561668,12.561668 0 0 1 12.56152,-12.56202 12.561668,12.561668 0 0 1 2.10736,0.17828 20.446119,20.446119 0 0 0 -15.73807,-7.39438 20.446119,20.446119 0 0 0 -0.0413,0 z" />
    <circle
       style="fill:#e40045;fill-opacity:0.66485;stroke:none;stroke-width:6.05261;stroke-opacity:1"
       id="path904-7-4-5-5"
       cx="79.151489"
       cy="321.87677"
       r="9.2207985" />
    <text
       xml:space="preserve"
       style="font-style:normal;font-variant:normal;font-weight:normal;font-stretch:normal;font-size:18.141px;line-height:1.25;font-family:'Eternal Logo';-inkscape-font-specification:'Eternal Logo, Normal';font-variant-ligatures:normal;font-variant-caps:normal;font-variant-numeric:normal;font-variant-east-asian:normal;fill:#000000;fill-opacity:1;stroke:none;stroke-width:0.453525"
       x="93.333778"
       y="378.84299"
       id="text835-4-2-4-3"><tspan
         sodipodi:role="line"
         x="93.333778"
         y="378.84299"
         style="font-style:normal;font-variant:normal;font-weight:normal;font-stretch:normal;font-size:18.141px;font-family:'Eternal Logo';-inkscape-font-specification:'Eternal Logo, Normal';font-variant-ligatures:normal;font-variant-caps:normal;font-variant-numeric:normal;font-variant-east-asian:normal;stroke-width:0.453525"
         id="tspan906-1-1-7-5">P2RANK</tspan></text>
    <path
       id="path869-3-6-9-9"
       style="fill:#67e300;fill-opacity:1;stroke:none;stroke-width:4.99999;stroke-opacity:1"
       d="m 65.557742,352.15779 a 20.446119,20.446119 0 0 0 -20.40495,20.4463 20.446119,20.446119 0 0 0 20.44629,20.44578 20.446119,20.446119 0 0 0 16.939544,-8.99635 12.561668,12.561668 0 0 1 -3.308839,0.4439 12.561668,12.561668 0 0 1 -12.561515,-12.56151 12.561668,12.561668 0 0 1 12.561515,-12.56202 12.561668,12.561668 0 0 1 2.107358,0.17828 20.446119,20.446119 0 0 0 -15.738063,-7.39438 20.446119,20.446119 0 0 0 -0.0413,0 z" />
    <circle
       style="fill:#e40045;fill-opacity:1;stroke:none;stroke-width:6.05261;stroke-opacity:1"
       id="path904-7-4-5-8"
       cx="78.962494"
       cy="372.33661"
       r="9.2207985" />
    <text
       id="text835-4-2-4-3-6"
       y="429.49179"
       x="90.498962"
       style="font-style:normal;font-variant:normal;font-weight:normal;font-stretch:normal;font-size:18.141px;line-height:1.25;font-family:'Eternal Logo';-inkscape-font-specification:'Eternal Logo, Normal';font-variant-ligatures:normal;font-variant-caps:normal;font-variant-numeric:normal;font-variant-east-asian:normal;fill:#000000;fill-opacity:1;stroke:none;stroke-width:0.453525"
       xml:space="preserve"><tspan
         id="tspan906-1-1-7-5-0"
         style="font-style:normal;font-variant:normal;font-weight:normal;font-stretch:normal;font-size:18.141px;font-family:'Eternal Logo';-inkscape-font-specification:'Eternal Logo, Normal';font-variant-ligatures:normal;font-variant-caps:normal;font-variant-numeric:normal;font-variant-east-asian:normal;stroke-width:0.453525"
         y="429.49179"
         x="90.498962"
         sodipodi:role="line">P2RANK</tspan></text>
    <path
       d="m 62.722925,402.8066 a 20.446119,20.446119 0 0 0 -20.404955,20.4463 20.446119,20.446119 0 0 0 20.446295,20.44578 20.446119,20.446119 0 0 0 16.93954,-8.99635 12.561668,12.561668 0 0 1 -3.30884,0.4439 12.561668,12.561668 0 0 1 -12.56151,-12.56151 12.561668,12.561668 0 0 1 12.56151,-12.56202 12.561668,12.561668 0 0 1 2.10736,0.17828 20.446119,20.446119 0 0 0 -15.73806,-7.39438 20.446119,20.446119 0 0 0 -0.0413,0 z"
       style="fill:#4e026e;fill-opacity:1;stroke:none;stroke-width:4.99999;stroke-opacity:1"
       id="path869-3-6-9-9-7" />
    <circle
       r="9.2207985"
       cy="422.98541"
       cx="76.127678"
       id="path904-7-4-5-8-7"
       style="fill:#9ea400;fill-opacity:1;stroke:none;stroke-width:6.05261;stroke-opacity:1" />
    <text
       xml:space="preserve"
       style="font-style:normal;font-variant:normal;font-weight:normal;font-stretch:normal;font-size:18.141px;line-height:1.25;font-family:'Eternal Logo';-inkscape-font-specification:'Eternal Logo, Normal';font-variant-ligatures:normal;font-variant-caps:normal;font-variant-numeric:normal;font-variant-east-asian:normal;fill:#000000;fill-opacity:1;stroke:none;stroke-width:0.453525"
       x="89.365028"
       y="480.89655"
       id="text835-4-2-4-3-6-4"><tspan
         sodipodi:role="line"
         x="89.365028"
         y="480.89655"
         style="font-style:normal;font-variant:normal;font-weight:normal;font-stretch:normal;font-size:18.141px;font-family:'Eternal Logo';-inkscape-font-specification:'Eternal Logo, Normal';font-variant-ligatures:normal;font-variant-caps:normal;font-variant-numeric:normal;font-variant-east-asian:normal;stroke-width:0.453525"
         id="tspan906-1-1-7-5-0-1">P2RANK</tspan></text>
    <path
       id="path869-3-6-9-9-7-9"
       style="fill:#4e026e;fill-opacity:0.621253;stroke:none;stroke-width:4.99999;stroke-opacity:1"
       d="m 61.588993,454.21136 a 20.446119,20.446119 0 0 0 -20.40495,20.4463 20.446119,20.446119 0 0 0 20.44629,20.44578 20.446119,20.446119 0 0 0 16.93954,-8.99635 12.561668,12.561668 0 0 1 -3.30884,0.4439 12.561668,12.561668 0 0 1 -12.56151,-12.56151 12.561668,12.561668 0 0 1 12.56151,-12.56202 12.561668,12.561668 0 0 1 2.10736,0.17828 20.446119,20.446119 0 0 0 -15.73806,-7.39438 20.446119,20.446119 0 0 0 -0.0413,0 z" />
    <circle
       style="fill:#9ea400;fill-opacity:0.618529;stroke:none;stroke-width:6.05261;stroke-opacity:1"
       id="path904-7-4-5-8-7-2"
       cx="74.993736"
       cy="474.39017"
       r="9.2207985" />
    <text
       id="text835-4-2-4-3-6-4-4"
       y="532.4903"
       x="88.987053"
       style="font-style:normal;font-variant:normal;font-weight:normal;font-stretch:normal;font-size:18.141px;line-height:1.25;font-family:'Eternal Logo';-inkscape-font-specification:'Eternal Logo, Normal';font-variant-ligatures:normal;font-variant-caps:normal;font-variant-numeric:normal;font-variant-east-asian:normal;fill:#000000;fill-opacity:1;stroke:none;stroke-width:0.453525"
       xml:space="preserve"><tspan
         id="tspan906-1-1-7-5-0-1-7"
         style="font-style:normal;font-variant:normal;font-weight:normal;font-stretch:normal;font-size:18.141px;font-family:'Eternal Logo';-inkscape-font-specification:'Eternal Logo, Normal';font-variant-ligatures:normal;font-variant-caps:normal;font-variant-numeric:normal;font-variant-east-asian:normal;stroke-width:0.453525"
         y="532.4903"
         x="88.987053"
         sodipodi:role="line">P2RANK</tspan></text>
    <path
       d="m 61.211016,505.80511 a 20.446119,20.446119 0 0 0 -20.40495,20.4463 20.446119,20.446119 0 0 0 20.44629,20.44578 20.446119,20.446119 0 0 0 16.93954,-8.99635 12.561668,12.561668 0 0 1 -3.30884,0.4439 12.561668,12.561668 0 0 1 -12.56151,-12.56151 12.561668,12.561668 0 0 1 12.56151,-12.56202 12.561668,12.561668 0 0 1 2.10736,0.17828 20.446119,20.446119 0 0 0 -15.73806,-7.39438 20.446119,20.446119 0 0 0 -0.0413,0 z"
       style="fill:#ff5f00;fill-opacity:1;stroke:none;stroke-width:4.99999;stroke-opacity:1"
       id="path869-3-6-9-9-7-9-4" />
    <circle
       r="9.2207985"
       cy="525.98389"
       cx="74.615761"
       id="path904-7-4-5-8-7-2-9"
       style="fill:#00a67c;fill-opacity:1;stroke:none;stroke-width:6.05261;stroke-opacity:1" />
    <text
       xml:space="preserve"
       style="font-style:normal;font-variant:normal;font-weight:normal;font-stretch:normal;font-size:18.141px;line-height:1.25;font-family:'Eternal Logo';-inkscape-font-specification:'Eternal Logo, Normal';font-variant-ligatures:normal;font-variant-caps:normal;font-variant-numeric:normal;font-variant-east-asian:normal;fill:#000000;fill-opacity:1;stroke:none;stroke-width:0.453525"
       x="91.821884"
       y="592.5885"
       id="text835-4-2-4-3-6-4-4-4"><tspan
         sodipodi:role="line"
         x="91.821884"
         y="592.5885"
         style="font-style:normal;font-variant:normal;font-weight:normal;font-stretch:normal;font-size:18.141px;font-family:'Eternal Logo';-inkscape-font-specification:'Eternal Logo, Normal';font-variant-ligatures:normal;font-variant-caps:normal;font-variant-numeric:normal;font-variant-east-asian:normal;stroke-width:0.453525"
         id="tspan906-1-1-7-5-0-1-7-9">P2RANK</tspan></text>
    <path
       id="path869-3-6-9-9-7-9-4-1"
       style="fill:#ff5f00;fill-opacity:0.651226;stroke:none;stroke-width:4.99999;stroke-opacity:1"
       d="m 64.045842,565.90333 a 20.446119,20.446119 0 0 0 -20.40495,20.4463 20.446119,20.446119 0 0 0 20.44629,20.44578 20.446119,20.446119 0 0 0 16.93954,-8.99635 12.561668,12.561668 0 0 1 -3.30885,0.4439 12.561668,12.561668 0 0 1 -12.5615,-12.56151 12.561668,12.561668 0 0 1 12.5615,-12.56202 12.561668,12.561668 0 0 1 2.10737,0.17828 20.446119,20.446119 0 0 0 -15.73806,-7.39438 20.446119,20.446119 0 0 0 -0.0413,0 z" />
    <circle
       style="fill:#00a67c;fill-opacity:0.626703;stroke:none;stroke-width:6.05261;stroke-opacity:1"
       id="path904-7-4-5-8-7-2-9-4"
       cx="77.450592"
       cy="586.08209"
       r="9.2207985" />
    <path
       d="m 67.515395,38.932653 -2.930054,0.09508 -1.104326,4.772835 a 20.446119,20.446119 0 0 0 -6.370153,2.792078 l -5.329907,-2.731616 -1.962671,2.177645 -1.816944,2.300118 3.183784,4.25452 a 20.446119,20.446119 0 0 0 -2.834968,6.971666 l -4.990394,1.15497 -0.09508,2.930054 0.09508,2.929536 4.990394,1.154969 a 20.446119,20.446119 0 0 0 2.539897,6.49831 l -2.888713,5.078761 2.090311,2.055689 2.218987,1.915128 4.287078,-2.925403 a 20.446119,20.446119 0 0 0 6.831107,3.129008 l 1.156518,4.997627 2.930054,0.09509 2.929535,-0.09509 1.071253,-4.62969 A 20.446119,20.446119 0 0 0 85.32361,75.099435 12.561668,12.561668 0 0 1 82.014768,75.543337 12.561668,12.561668 0 0 1 69.453261,62.981831 12.561668,12.561668 0 0 1 82.014768,50.419806 12.561668,12.561668 0 0 1 84.122132,50.59809 20.446119,20.446119 0 0 0 71.465542,43.437287 l -1.020612,-4.40955 z"
       style="fill:#00305a;fill-opacity:0.64;stroke:none;stroke-width:4.99999;stroke-opacity:1"
       id="path869-2" />
    <circle
       r="9.2207985"
       cy="62.810745"
       cx="82.572716"
       id="path904-5"
       style="fill:#2a2a2b;fill-opacity:0.55;stroke:none;stroke-width:6.05261;stroke-opacity:1" />
    <text
       id="text835-7"
       y="68.206703"
       x="96.422195"
       style="font-style:normal;font-variant:normal;font-weight:normal;font-stretch:normal;font-size:18.141px;line-height:1.25;font-family:'Eternal Logo';-inkscape-font-specification:'Eternal Logo, Normal';font-variant-ligatures:normal;font-variant-caps:normal;font-variant-numeric:normal;font-variant-east-asian:normal;fill:#000000;fill-opacity:1;stroke:none;stroke-width:0.453525"
       xml:space="preserve"><tspan
         id="tspan906-2"
         style="font-style:normal;font-variant:normal;font-weight:normal;font-stretch:normal;font-size:18.141px;font-family:'Eternal Logo';-inkscape-font-specification:'Eternal Logo, Normal';font-variant-ligatures:normal;font-variant-caps:normal;font-variant-numeric:normal;font-variant-east-asian:normal;stroke-width:0.453525"
         y="68.206703"
         x="96.422195"
         sodipodi:role="line">P2RANK</tspan></text>
    <text
       transform="scale(1.2187361,0.82052217)"
       id="text1512"
       y="79.37027"
       x="0.94961452"
       style="font-style:normal;font-weight:normal;font-size:25.4007px;line-height:1.25;font-family:sans-serif;fill:#000000;fill-opacity:1;stroke:none;stroke-width:0.63502"
       xml:space="preserve"><tspan
         style="stroke-width:0.63502"
         y="79.37027"
         x="0.94961452"
         id="tspan1510"
         sodipodi:role="line">1</tspan></text>
    <text
       xml:space="preserve"
       style="font-style:normal;font-weight:normal;font-size:25.4007px;line-height:1.25;font-family:sans-serif;fill:#000000;fill-opacity:1;stroke:none;stroke-width:0.635021"
       x="-2.595819"
       y="156.38713"
       id="text1512-8"
       transform="scale(1.2187361,0.82052218)"><tspan
         sodipodi:role="line"
         id="tspan1510-4"
         x="-2.595819"
         y="156.38713"
         style="stroke-width:0.635021">2</tspan></text>
    <text
       xml:space="preserve"
       style="font-style:normal;font-weight:normal;font-size:25.4007px;line-height:1.25;font-family:sans-serif;fill:#000000;fill-opacity:1;stroke:none;stroke-width:0.635021"
       x="-0.40281326"
       y="215.01871"
       id="text1512-3"
       transform="scale(1.2187361,0.82052218)"><tspan
         sodipodi:role="line"
         id="tspan1510-6"
         x="-0.40281326"
         y="215.01871"
         style="stroke-width:0.635021">3</tspan></text>
    <text
       xml:space="preserve"
       style="font-style:normal;font-weight:normal;font-size:25.4007px;line-height:1.25;font-family:sans-serif;fill:#000000;fill-opacity:1;stroke:none;stroke-width:0.635021"
       x="-1.2800156"
       y="272.34738"
       id="text1512-1"
       transform="scale(1.2187361,0.82052218)"><tspan
         sodipodi:role="line"
         id="tspan1510-1"
         x="-1.2800156"
         y="272.34738"
         style="stroke-width:0.635021">4</tspan></text>
    <text
       xml:space="preserve"
       style="font-style:normal;font-weight:normal;font-size:25.4007px;line-height:1.25;font-family:sans-serif;fill:#000000;fill-opacity:1;stroke:none;stroke-width:0.635021"
       x="-3.9116225"
       y="344.00821"
       id="text1512-6"
       transform="scale(1.2187361,0.82052218)"><tspan
         sodipodi:role="line"
         id="tspan1510-7"
         x="-3.9116225"
         y="344.00821"
         style="stroke-width:0.635021">5</tspan></text>
    <text
       xml:space="preserve"
       style="font-style:normal;font-weight:normal;font-size:25.4007px;line-height:1.25;font-family:sans-serif;fill:#000000;fill-opacity:1;stroke:none;stroke-width:0.635021"
       x="-5.2274261"
       y="395.47369"
       id="text1512-39"
       transform="scale(1.2187361,0.82052218)"><tspan
         sodipodi:role="line"
         id="tspan1510-2"
         x="-5.2274261"
         y="395.47369"
         style="stroke-width:0.635021">6</tspan></text>
    <text
       xml:space="preserve"
       style="font-style:normal;font-weight:normal;font-size:25.4007px;line-height:1.25;font-family:sans-serif;fill:#000000;fill-opacity:1;stroke:none;stroke-width:0.635021"
       x="-3.9116225"
       y="459.31699"
       id="text1512-38"
       transform="scale(1.2187361,0.82052218)"><tspan
         sodipodi:role="line"
         id="tspan1510-28"
         x="-3.9116225"
         y="459.31699"
         style="stroke-width:0.635021">7</tspan></text>
    <text
       xml:space="preserve"
       style="font-style:normal;font-weight:normal;font-size:25.4007px;line-height:1.25;font-family:sans-serif;fill:#000000;fill-opacity:1;stroke:none;stroke-width:0.635021"
       x="-5.6660271"
       y="514.03979"
       id="text1512-60"
       transform="scale(1.2187361,0.82052218)"><tspan
         sodipodi:role="line"
         id="tspan1510-9"
         x="-5.6660271"
         y="514.03979"
         style="stroke-width:0.635021">8</tspan></text>
    <text
       xml:space="preserve"
       style="font-style:normal;font-weight:normal;font-size:25.4007px;line-height:1.25;font-family:sans-serif;fill:#000000;fill-opacity:1;stroke:none;stroke-width:0.635021"
       x="-3.9116225"
       y="585.04913"
       id="text1512-16"
       transform="scale(1.2187361,0.82052218)"><tspan
         sodipodi:role="line"
         id="tspan1510-98"
         x="-3.9116225"
         y="585.04913"
         style="stroke-width:0.635021">9</tspan></text>
    <text
       xml:space="preserve"
       style="font-style:normal;font-weight:normal;font-size:25.4007px;line-height:1.25;font-family:sans-serif;fill:#000000;fill-opacity:1;stroke:none;stroke-width:0.635021"
       x="-4.3502235"
       y="648.24097"
       id="text1512-4"
       transform="scale(1.2187361,0.82052218)"><tspan
         sodipodi:role="line"
         id="tspan1510-3"
         x="-4.3502235"
         y="648.24097"
         style="stroke-width:0.635021">10</tspan></text>
    <text
       xml:space="preserve"
       style="font-style:normal;font-weight:normal;font-size:25.4007px;line-height:1.25;font-family:sans-serif;fill:#000000;fill-opacity:1;stroke:none;stroke-width:0.635021"
       x="-6.9818306"
       y="722.50763"
       id="text1512-34"
       transform="scale(1.2187361,0.82052218)"><tspan
         sodipodi:role="line"
         id="tspan1510-286"
         x="-6.9818306"
         y="722.50763"
         style="stroke-width:0.635021">11</tspan></text>
  </g>
</svg>
