<?xml version="1.0" encoding="UTF-8" standalone="no"?>
<svg
   xmlns:dc="http://purl.org/dc/elements/1.1/"
   xmlns:cc="http://creativecommons.org/ns#"
   xmlns:rdf="http://www.w3.org/1999/02/22-rdf-syntax-ns#"
   xmlns:svg="http://www.w3.org/2000/svg"
   xmlns="http://www.w3.org/2000/svg"
   xmlns:sodipodi="http://sodipodi.sourceforge.net/DTD/sodipodi-0.dtd"
   xmlns:inkscape="http://www.inkscape.org/namespaces/inkscape"
   width="133.46721mm"
   height="40.892086mm"
   viewBox="0 0 133.46721 40.892086"
   version="1.1"
   id="svg2733"
   inkscape:version="1.0 (4035a4fb49, 2020-05-01)"
   sodipodi:docname="logo-ligand-path.svg">
  <defs
     id="defs2727" />
  <sodipodi:namedview
     id="base"
     pagecolor="#ffffff"
     bordercolor="#666666"
     borderopacity="1.0"
     inkscape:pageopacity="0.0"
     inkscape:pageshadow="2"
     inkscape:zoom="1.4"
     inkscape:cx="337.2209"
     inkscape:cy="167.00442"
     inkscape:document-units="mm"
     inkscape:current-layer="layer1"
     inkscape:document-rotation="0"
     showgrid="false"
     inkscape:window-width="1920"
     inkscape:window-height="1147"
     inkscape:window-x="1912"
     inkscape:window-y="-8"
     inkscape:window-maximized="1" />
  <metadata
     id="metadata2730">
    <rdf:RDF>
      <cc:Work
         rdf:about="">
        <dc:format>image/svg+xml</dc:format>
        <dc:type
           rdf:resource="http://purl.org/dc/dcmitype/StillImage" />
        <dc:title />
      </cc:Work>
    </rdf:RDF>
  </metadata>
  <g
     inkscape:label="Layer 1"
     inkscape:groupmode="layer"
     id="layer1"
     transform="translate(16.840747,-23.399195)">
    <g
       id="g862"
       transform="translate(-64.414587,-77.628735)">
      <path
         id="path869"
         style="fill:#00305a;fill-opacity:0.64;stroke:none;stroke-width:18.8976;stroke-opacity:1"
         d="m 256.92773,381.83789 a 77.27667,77.27667 0 0 0 -77.12109,77.27734 77.27667,77.27667 0 0 0 77.27734,77.27539 77.27667,77.27667 0 0 0 64.02344,-34.00195 47.47717,47.47717 0 0 1 -12.50586,1.67774 47.47717,47.47717 0 0 1 -47.47656,-47.47657 47.47717,47.47717 0 0 1 47.47656,-47.47851 47.47717,47.47717 0 0 1 7.96485,0.67383 77.27667,77.27667 0 0 0 -59.48243,-27.94727 77.27667,77.27667 0 0 0 -0.15625,0 z"
         transform="scale(0.26458333)" />
      <circle
         style="fill:#2a2a2b;fill-opacity:0.55;stroke:none;stroke-width:6.05262;stroke-opacity:1"
         id="path904"
         cx="81.383568"
         cy="121.20673"
         r="9.2207985" />
    </g>
    <g
       transform="translate(0,2.4938307)"
       id="g5746">
      <g
         style="font-style:normal;font-variant:normal;font-weight:normal;font-stretch:normal;font-size:15.5899px;line-height:1.25;font-family:'Eternal Logo';-inkscape-font-specification:'Eternal Logo, Normal';font-variant-ligatures:normal;font-variant-caps:normal;font-variant-numeric:normal;font-variant-east-asian:normal;fill:#000000;fill-opacity:1;stroke:none;stroke-width:0.38975"
         id="text835"
         aria-label="P2RANK">
        <path
           id="path3329"
           style="font-style:normal;font-variant:normal;font-weight:normal;font-stretch:normal;font-size:15.5899px;font-family:'Eternal Logo';-inkscape-font-specification:'Eternal Logo, Normal';font-variant-ligatures:normal;font-variant-caps:normal;font-variant-numeric:normal;font-variant-east-asian:normal;stroke-width:0.38975"
           d="m 43.069232,33.242973 q 0.05329,-3.455964 -4.057333,-3.455964 h -9.005298 v 10.915975 h 2.527269 v -3.882251 h 6.478029 q 4.004047,0 4.057333,-3.57776 z M 32.53387,34.826322 V 31.78142 h 6.234437 q 1.781268,0 1.781268,1.461553 0,1.583349 -1.781268,1.583349 z" />
        <path
           id="path3331"
           style="font-style:normal;font-variant:normal;font-weight:normal;font-stretch:normal;font-size:15.5899px;font-family:'Eternal Logo';-inkscape-font-specification:'Eternal Logo, Normal';font-variant-ligatures:normal;font-variant-caps:normal;font-variant-numeric:normal;font-variant-east-asian:normal;stroke-width:0.38975"
           d="m 52.729185,31.78142 q 2.32935,0 2.32935,1.195124 0,1.271247 -2.32935,1.271247 h -3.623434 q -4.552129,0 -4.605415,3.265658 v 3.189535 h 11.707649 l 1.354982,-0.997206 -1.354982,-0.997205 H 47.11134 v -1.195124 q 0,-1.271247 2.32935,-1.271247 h 3.623434 q 4.552129,0 4.605415,-3.265658 0.05329,-3.189535 -4.605415,-3.189535 h -7.102235 l -1.354981,0.997205 1.354981,0.997206 z" />
        <path
           id="path3333"
           style="font-style:normal;font-variant:normal;font-weight:normal;font-stretch:normal;font-size:15.5899px;font-family:'Eternal Logo';-inkscape-font-specification:'Eternal Logo, Normal';font-variant-ligatures:normal;font-variant-caps:normal;font-variant-numeric:normal;font-variant-east-asian:normal;stroke-width:0.38975"
           d="m 69.263005,40.702984 h 2.816534 l -2.466371,-4.072557 q 2.375024,-0.63943 2.413085,-3.387454 0.05329,-3.455964 -4.057332,-3.455964 h -9.005299 v 10.915975 h 2.527269 V 36.820733 H 66.91843 Z M 61.490891,34.826322 V 31.78142 h 6.234438 q 1.781268,0 1.781268,1.461553 0,1.583349 -1.781268,1.583349 z" />
        <path
           id="path3335"
           style="font-style:normal;font-variant:normal;font-weight:normal;font-stretch:normal;font-size:15.5899px;font-family:'Eternal Logo';-inkscape-font-specification:'Eternal Logo, Normal';font-variant-ligatures:normal;font-variant-caps:normal;font-variant-numeric:normal;font-variant-east-asian:normal;stroke-width:0.38975"
           d="m 78.686977,29.787009 -5.876662,10.915975 h 2.603391 l 0.799287,-1.469166 h 7.779726 l 0.799287,1.469166 h 2.603391 L 81.518736,29.787009 Z m -1.446329,7.55897 2.862208,-5.260069 2.862208,5.260069 z" />
        <path
           id="path3337"
           style="font-style:normal;font-variant:normal;font-weight:normal;font-stretch:normal;font-size:15.5899px;font-family:'Eternal Logo';-inkscape-font-specification:'Eternal Logo, Normal';font-variant-ligatures:normal;font-variant-caps:normal;font-variant-numeric:normal;font-variant-east-asian:normal;stroke-width:0.38975"
           d="m 88.499177,29.787009 v 10.915975 h 2.519657 v -7.764501 l 7.871073,7.764501 h 2.938333 V 29.787009 h -2.519659 v 7.764501 l -7.871073,-7.764501 z" />
        <path
           id="path3339"
           style="font-style:normal;font-variant:normal;font-weight:normal;font-stretch:normal;font-size:15.5899px;font-family:'Eternal Logo';-inkscape-font-specification:'Eternal Logo, Normal';font-variant-ligatures:normal;font-variant-caps:normal;font-variant-numeric:normal;font-variant-east-asian:normal;stroke-width:0.38975"
           d="m 103.51055,40.702984 h 2.51965 v -2.626228 l 2.72519,-2.352187 4.6587,4.978415 h 3.21237 l -6.09742,-6.508479 5.10783,-4.407496 h -3.41029 l -6.19638,5.343804 v -5.343804 h -2.51965 z" />
      </g>
      <g
         style="font-style:normal;font-variant:normal;font-weight:normal;font-stretch:normal;font-size:8.46667px;line-height:1.25;font-family:'Eternal Logo';-inkscape-font-specification:'Eternal Logo, Normal';font-variant-ligatures:normal;font-variant-caps:normal;font-variant-numeric:normal;font-variant-east-asian:normal;fill:#000000;fill-opacity:1;stroke:none;stroke-width:0.38975"
         id="text835-9"
         aria-label="ligand">
        <path
           id="path3342"
           style="font-style:normal;font-variant:normal;font-weight:normal;font-stretch:normal;font-size:8.46667px;font-family:'Eternal Logo';-inkscape-font-specification:'Eternal Logo, Normal';font-variant-ligatures:normal;font-variant-caps:normal;font-variant-numeric:normal;font-variant-east-asian:normal;stroke-width:0.38975"
           d="m 59.06195,52.915806 v -1.083139 h -4.543393 v -4.845184 h -1.368393 v 5.928323 z" />
        <path
           id="path3344"
           style="font-style:normal;font-variant:normal;font-weight:normal;font-stretch:normal;font-size:8.46667px;font-family:'Eternal Logo';-inkscape-font-specification:'Eternal Logo, Normal';font-variant-ligatures:normal;font-variant-caps:normal;font-variant-numeric:normal;font-variant-east-asian:normal;stroke-width:0.38975"
           d="m 61.199288,52.915806 v -5.928323 h -1.368392 v 5.928323 z" />
        <path
           id="path3346"
           style="font-style:normal;font-variant:normal;font-weight:normal;font-stretch:normal;font-size:8.46667px;font-family:'Eternal Logo';-inkscape-font-specification:'Eternal Logo, Normal';font-variant-ligatures:normal;font-variant-caps:normal;font-variant-numeric:normal;font-variant-east-asian:normal;stroke-width:0.38975"
           d="m 65.114297,51.832667 q -1.773536,0 -1.773536,-1.914095 0,-1.84795 1.773536,-1.84795 h 3.948081 v -1.083139 h -4.129982 q -2.993101,0 -2.964162,2.931089 0.02894,2.997234 2.964162,2.997234 h 4.129982 v -3.53467 h -3.60495 v 1.083139 h 2.240691 v 1.368392 z" />
        <path
           id="path3348"
           style="font-style:normal;font-variant:normal;font-weight:normal;font-stretch:normal;font-size:8.46667px;font-family:'Eternal Logo';-inkscape-font-specification:'Eternal Logo, Normal';font-variant-ligatures:normal;font-variant-caps:normal;font-variant-numeric:normal;font-variant-east-asian:normal;stroke-width:0.38975"
           d="m 72.907105,46.987483 -3.191537,5.928323 h 1.413867 l 0.434083,-0.797885 h 4.225066 l 0.434083,0.797885 h 1.413867 l -3.191537,-5.928323 z m -0.785482,4.105178 1.554428,-2.856675 1.554428,2.856675 z" />
        <path
           id="path3350"
           style="font-style:normal;font-variant:normal;font-weight:normal;font-stretch:normal;font-size:8.46667px;font-family:'Eternal Logo';-inkscape-font-specification:'Eternal Logo, Normal';font-variant-ligatures:normal;font-variant-caps:normal;font-variant-numeric:normal;font-variant-east-asian:normal;stroke-width:0.38975"
           d="m 78.235982,46.987483 v 5.928323 h 1.368392 v -4.216799 l 4.274676,4.216799 h 1.595769 v -5.928323 h -1.368392 v 4.216799 L 79.83175,46.987483 Z" />
        <path
           id="path3352"
           style="font-style:normal;font-variant:normal;font-weight:normal;font-stretch:normal;font-size:8.46667px;font-family:'Eternal Logo';-inkscape-font-specification:'Eternal Logo, Normal';font-variant-ligatures:normal;font-variant-caps:normal;font-variant-numeric:normal;font-variant-east-asian:normal;stroke-width:0.38975"
           d="m 90.518443,52.915806 q 2.935222,0 2.964161,-2.997234 0.02894,-2.931089 -2.964161,-2.931089 h -4.129982 v 5.928323 z m -2.76159,-4.845184 h 2.579689 q 1.77767,0 1.77767,1.84795 0,1.914095 -1.77767,1.914095 h -2.579689 z" />
      </g>
    </g>
  </g>
</svg>
