<?xml version="1.0" encoding="UTF-8" standalone="no"?>
<svg
   xmlns:dc="http://purl.org/dc/elements/1.1/"
   xmlns:cc="http://creativecommons.org/ns#"
   xmlns:rdf="http://www.w3.org/1999/02/22-rdf-syntax-ns#"
   xmlns:svg="http://www.w3.org/2000/svg"
   xmlns="http://www.w3.org/2000/svg"
   xmlns:sodipodi="http://sodipodi.sourceforge.net/DTD/sodipodi-0.dtd"
   xmlns:inkscape="http://www.inkscape.org/namespaces/inkscape"
   width="135.24371mm"
   height="40.892086mm"
   viewBox="0 0 135.24371 40.892086"
   version="1.1"
   id="svg8"
   inkscape:version="1.0 (4035a4fb49, 2020-05-01)"
   sodipodi:docname="logo-dna.svg">
  <defs
     id="defs2" />
  <sodipodi:namedview
     fit-margin-bottom="0"
     fit-margin-right="0"
     fit-margin-left="0"
     fit-margin-top="0"
     id="base"
     pagecolor="#ffffff"
     bordercolor="#666666"
     borderopacity="1.0"
     inkscape:pageopacity="0.0"
     inkscape:pageshadow="2"
     inkscape:zoom="1.4"
     inkscape:cx="180.50518"
     inkscape:cy="116.09036"
     inkscape:document-units="mm"
     inkscape:current-layer="layer1"
     inkscape:document-rotation="0"
     showgrid="false"
     inkscape:window-width="1920"
     inkscape:window-height="1147"
     inkscape:window-x="1912"
     inkscape:window-y="-8"
     inkscape:window-maximized="1" />
  <metadata
     id="metadata5">
    <rdf:RDF>
      <cc:Work
         rdf:about="">
        <dc:format>image/svg+xml</dc:format>
        <dc:type
           rdf:resource="http://purl.org/dc/dcmitype/StillImage" />
        <dc:title></dc:title>
      </cc:Work>
    </rdf:RDF>
  </metadata>
  <g
     transform="translate(-47.57384,-101.02793)"
     inkscape:label="Vrstva 1"
     inkscape:groupmode="layer"
     id="layer1">
    <text
       xml:space="preserve"
       style="font-style:normal;font-variant:normal;font-weight:normal;font-stretch:normal;font-size:15.5899px;line-height:1.25;font-family:'Eternal Logo';-inkscape-font-specification:'Eternal Logo, Normal';font-variant-ligatures:normal;font-variant-caps:normal;font-variant-numeric:normal;font-variant-east-asian:normal;fill:#000000;fill-opacity:1;stroke:none;stroke-width:0.389749"
       x="93.553391"
       y="118.56609"
       id="text835"><tspan
         sodipodi:role="line"
         x="93.553391"
         y="118.56609"
         style="font-style:normal;font-variant:normal;font-weight:normal;font-stretch:normal;font-size:15.5899px;font-family:'Eternal Logo';-inkscape-font-specification:'Eternal Logo, Normal';font-variant-ligatures:normal;font-variant-caps:normal;font-variant-numeric:normal;font-variant-east-asian:normal;stroke-width:0.389749"
         id="tspan906">P2RANK</tspan></text>
    <path
       id="path869"
       style="fill:#00305a;fill-opacity:0.64;stroke:none;stroke-width:4.99999;stroke-opacity:1"
       d="m 67.978794,101.26232 a 20.446119,20.446119 0 0 0 -20.404954,20.44629 20.446119,20.446119 0 0 0 20.446296,20.44578 20.446119,20.446119 0 0 0 16.939534,-8.99635 12.561668,12.561668 0 0 1 -3.308842,0.44391 12.561668,12.561668 0 0 1 -12.561506,-12.56151 12.561668,12.561668 0 0 1 12.561506,-12.56203 12.561668,12.561668 0 0 1 2.107367,0.17829 20.446119,20.446119 0 0 0 -15.738059,-7.39438 20.446119,20.446119 0 0 0 -0.04134,0 z" />
    <text
       id="text835-9"
       y="130.77892"
       x="117.09347"
       style="font-style:normal;font-variant:normal;font-weight:normal;font-stretch:normal;font-size:8.46667px;line-height:1.25;font-family:'Eternal Logo';-inkscape-font-specification:'Eternal Logo, Normal';font-variant-ligatures:normal;font-variant-caps:normal;font-variant-numeric:normal;font-variant-east-asian:normal;fill:#000000;fill-opacity:1;stroke:none;stroke-width:0.38975"
       xml:space="preserve"><tspan
         id="tspan906-6"
         style="font-style:normal;font-variant:normal;font-weight:normal;font-stretch:normal;font-size:8.46667px;font-family:'Eternal Logo';-inkscape-font-specification:'Eternal Logo, Normal';font-variant-ligatures:normal;font-variant-caps:normal;font-variant-numeric:normal;font-variant-east-asian:normal;stroke-width:0.38975"
         y="130.77892"
         x="117.09347"
         sodipodi:role="line">DNA</tspan></text>
    <path
       d="m 84.085195,113.69904 c -0.121116,0.0592 -0.448972,0.44605 -0.667441,0.77977 -0.324928,0.50204 -0.546329,1.0308 -0.717742,1.70997 -0.09751,0.38695 -0.24809,1.26114 -0.24809,1.43824 0,0.17426 -0.02361,0.18026 -0.679324,0.2481 -1.092808,0.11223 -1.763184,0.23914 -2.392211,0.45777 -1.243393,0.43416 -2.120511,1.31128 -2.554671,2.55468 -0.245161,0.70877 -0.33079,1.18137 -0.504979,2.84409 -0.0149,0.13893 -0.02948,0.17737 -0.0827,0.19494 -0.03256,0.0156 -0.277561,0.0533 -0.537532,0.0887 -0.894861,0.12113 -1.594859,0.3189 -2.212158,0.62022 -0.413489,0.20381 -0.673307,0.37508 -1.007181,0.65571 -0.321842,0.2717 -0.398677,0.44297 -0.295306,0.64382 0.126982,0.24517 0.440026,0.26293 0.649699,0.0356 0.05014,-0.0503 0.100439,-0.0916 0.118182,-0.0916 0.01778,0 0.392814,0.36026 0.832839,0.80029 0.546328,0.54632 0.818024,0.79735 0.847649,0.78562 0.04428,-0.0178 0.256885,-0.30132 0.363344,-0.48724 l 0.05324,-0.0947 -0.71774,-0.7236 c -0.60542,-0.60543 -0.714654,-0.72947 -0.685186,-0.76495 0.03256,-0.0413 0.643837,-0.31305 0.699998,-0.31305 0.0149,0 0.248091,0.22161 0.519789,0.49325 0.431231,0.43122 0.502048,0.49033 0.537534,0.45192 0.04721,-0.0503 0.194864,-0.59958 0.194864,-0.72654 0,-0.062 -0.04134,-0.12691 -0.168326,-0.25396 -0.103379,-0.10625 -0.159523,-0.18026 -0.141785,-0.19805 0.04427,-0.0384 0.877117,-0.15647 0.906741,-0.12691 0.05324,0.0533 -0.165391,1.23153 -0.321996,1.73372 -0.183128,0.58182 -0.507911,1.15776 -0.891929,1.58591 -0.206756,0.23329 -0.242231,0.3456 -0.162458,0.51099 0.09458,0.20093 0.298236,0.2717 0.502048,0.17426 0.197799,-0.0946 0.693981,-0.75616 0.951023,-1.26698 0.315976,-0.63798 0.587675,-1.65689 0.673457,-2.54589 0.0089,-0.11824 0.03549,-0.23329 0.05324,-0.2569 0.02361,-0.0325 0.165392,-0.0592 0.490323,-0.0916 1.107467,-0.11223 1.804533,-0.23327 2.371534,-0.41643 1.414498,-0.45776 2.321237,-1.36452 2.779006,-2.77915 0.183129,-0.56701 0.304253,-1.26407 0.416418,-2.37153 0.03256,-0.31013 0.0591,-0.46657 0.08855,-0.49033 0.02068,-0.0156 0.183128,-0.0471 0.360257,-0.0678 0.84472,-0.0947 1.774911,-0.33959 2.368605,-0.62609 0.534602,-0.25397 1.219789,-0.75308 1.340902,-0.97757 0.103379,-0.19493 0.03256,-0.41348 -0.17126,-0.50806 -0.16539,-0.0798 -0.277715,-0.0443 -0.510996,0.16247 -0.428299,0.38402 -1.004096,0.7088 -1.585909,0.89193 -0.50498,0.15648 -1.680486,0.37508 -1.733563,0.32184 -0.03841,-0.0384 0.132851,-1.12812 0.177283,-1.12812 0.0089,0 0.132851,0.11222 0.27463,0.251 0.138852,0.13892 0.27463,0.25103 0.298238,0.25103 0.06495,0 0.620231,-0.16247 0.697066,-0.20381 0.03549,-0.0178 0.06495,-0.0443 0.06495,-0.0532 0,-0.009 -0.239145,-0.25996 -0.53167,-0.55527 -0.37214,-0.37506 -0.531673,-0.55528 -0.531673,-0.60249 0,-0.0384 0.0591,-0.19181 0.132851,-0.34558 0.10925,-0.22743 0.14472,-0.27757 0.197955,-0.27757 0.04721,0 0.274627,0.2096 0.762018,0.69397 0.543397,0.54341 0.71481,0.694 0.770815,0.694 0.135918,0 0.528741,-0.31892 0.528741,-0.42538 0,-0.0413 -0.271702,-0.33372 -0.788559,-0.85059 -0.702929,-0.70293 -0.785627,-0.79734 -0.75307,-0.84471 0.08562,-0.11825 0.126982,-0.25101 0.106309,-0.33959 -0.0591,-0.26568 -0.295459,-0.38664 -0.534604,-0.26861 z m -1.751457,5.04146 c 0,0.0856 -0.01778,0.17737 -0.03549,0.20383 -0.02653,0.0295 -0.141786,0.0562 -0.360257,0.0798 -0.180217,0.0201 -0.336653,0.0443 -0.351464,0.0532 -0.0149,0.009 0.121114,0.16537 0.301321,0.34854 0.180195,0.18026 0.327858,0.35145 0.327858,0.378 0,0.0709 -0.147654,0.85938 -0.165392,0.87418 -0.0057,0.009 -0.336651,-0.31011 -0.735482,-0.70293 l -0.72067,-0.72067 -0.118182,0.0201 c -0.15661,0.0236 -0.620232,0.18026 -0.66158,0.2216 -0.02361,0.0236 0.239143,0.30717 0.965832,1.03371 l 1.001163,1.00117 -0.03841,0.1005 c -0.05617,0.13581 -0.292372,0.54925 -0.33079,0.57285 -0.01778,0.0113 -0.543398,-0.49323 -1.172421,-1.12225 -0.791491,-0.78858 -1.160697,-1.14003 -1.204977,-1.14003 -0.07082,0 -0.510997,0.40469 -0.510997,0.47256 0,0.0236 0.519792,0.56409 1.151903,1.1962 0.635041,0.63196 1.151901,1.16656 1.151901,1.18723 0,0.0413 -0.274629,0.23327 -0.499116,0.34545 l -0.159523,0.0827 -1.042513,-1.04251 c -0.726534,-0.72654 -1.054394,-1.03371 -1.075067,-1.01304 -0.02654,0.0265 -0.180216,0.43122 -0.251025,0.65865 -0.01778,0.0592 0.06789,0.15648 0.770814,0.86246 0.502048,0.50203 0.782696,0.80337 0.764952,0.8211 -0.02654,0.0236 -0.756003,0.18026 -0.84765,0.18026 -0.01778,0 -0.224486,-0.18893 -0.454834,-0.41935 -0.286512,-0.28357 -0.4283,-0.40469 -0.440024,-0.37506 -0.0089,0.0236 -0.03841,0.23327 -0.06789,0.46361 -0.03841,0.28653 -0.06788,0.43418 -0.09751,0.45192 -0.02361,0.0155 -0.112157,0.0265 -0.200888,0.0265 h -0.159523 l 0.02066,-0.27465 c 0.05324,-0.71188 0.192086,-1.5714 0.333876,-2.08826 0.194864,-0.70587 0.451907,-1.1755 0.880049,-1.6126 0.490323,-0.49913 0.995301,-0.77081 1.845882,-0.98635 0.446042,-0.11222 1.636207,-0.28359 2.031952,-0.29237 l 0.153522,-0.002 z"
       id="path868"
       style="fill:#2a2a2b;fill-opacity:0.55;stroke-width:0.00154286" />
  </g>
</svg>
